<svg xmlns="http://www.w3.org/2000/svg" width="160.058" height="43.669" viewBox="0 0 160.058 43.669"><defs><style>.a{fill:#1d4552;}.b{fill:#f97200;}.c{fill:#1d4553;}.d{fill:#b3b3b3;}</style></defs><g transform="translate(-71.483 -69.444)"><g transform="translate(71.483 69.444)"><g transform="translate(49.858 9.822)"><path class="a" d="M516.093,157.943a.948.948,0,0,1-.292-.73V129.59a.948.948,0,0,1,.292-.73,1,1,0,0,1,.709-.271h3.3a.935.935,0,0,1,1,1v1.669a7.872,7.872,0,0,1,6.676-3.087,8.02,8.02,0,0,1,6.468,2.65,11.363,11.363,0,0,1,2.42,7.156q.041.5.042,1.46,0,1-.042,1.5a11.355,11.355,0,0,1-2.42,7.072,7.96,7.96,0,0,1-6.468,2.692,7.523,7.523,0,0,1-6.426-2.962v9.472a.935.935,0,0,1-1,1H516.8A1,1,0,0,1,516.093,157.943Zm14.938-17.254c.027-.278.042-.695.042-1.252s-.014-.973-.042-1.251q-.293-5.549-4.8-5.549a4.211,4.211,0,0,0-3.589,1.544,6.751,6.751,0,0,0-1.293,3.8l-.042,1.585.042,1.628a5.77,5.77,0,0,0,1.314,3.567,4.372,4.372,0,0,0,3.568,1.482Q530.739,146.238,531.031,140.689Z" transform="translate(-491.35 -128.171)"/><path class="a" d="M656.59,149.848a7.073,7.073,0,0,1-2.8-2.316,5.668,5.668,0,0,1,1.272-7.8,13.779,13.779,0,0,1,6.3-2.379l5.717-.834v-.876a3.742,3.742,0,0,0-.918-2.754,4.066,4.066,0,0,0-2.963-.918,4.245,4.245,0,0,0-2.232.522,7.3,7.3,0,0,0-1.356,1.022c-.334.361-.557.6-.667.709a.631.631,0,0,1-.626.5h-3.213a.923.923,0,0,1-.647-.25.863.863,0,0,1-.271-.668,4.507,4.507,0,0,1,1.022-2.379,7.715,7.715,0,0,1,3.025-2.295,11.736,11.736,0,0,1,5.008-.96q4.923,0,7.177,2.211a7.765,7.765,0,0,1,2.254,5.8v13.1a1,1,0,0,1-.271.709.948.948,0,0,1-.73.292h-3.38a1,1,0,0,1-1-1v-1.628a6.8,6.8,0,0,1-2.608,2.191,9.236,9.236,0,0,1-4.193.856A8.869,8.869,0,0,1,656.59,149.848Zm9.075-4.61a6.04,6.04,0,0,0,1.461-4.382v-.876l-4.173.668a9.078,9.078,0,0,0-3.651,1.21,2.429,2.429,0,0,0-1.231,2.044,2.373,2.373,0,0,0,1.127,2.086,4.776,4.776,0,0,0,2.712.751A5.01,5.01,0,0,0,665.666,145.237Z" transform="translate(-605.413 -128.171)"/><path class="a" d="M793.171,149.764a8.191,8.191,0,0,1-3.15-2.211A3.771,3.771,0,0,1,789,145.362a.836.836,0,0,1,.292-.668.994.994,0,0,1,.668-.25h3.3a.792.792,0,0,1,.626.292q.166.125.876.751a5.123,5.123,0,0,0,1.669,1.043,5.793,5.793,0,0,0,2.128.375,5.176,5.176,0,0,0,2.754-.668,2.185,2.185,0,0,0,.605-3.255,4.159,4.159,0,0,0-1.732-.98,30.309,30.309,0,0,0-3.714-.939,11.126,11.126,0,0,1-5.237-2.3,5.271,5.271,0,0,1-1.69-4.089,5.53,5.53,0,0,1,1-3.151,7.206,7.206,0,0,1,2.983-2.42,10.978,10.978,0,0,1,4.736-.939,11.987,11.987,0,0,1,4.841.9,8.619,8.619,0,0,1,3.109,2.128,3.57,3.57,0,0,1,1.064,2.19.926.926,0,0,1-.918.918h-3.088a1.175,1.175,0,0,1-.709-.292,10.537,10.537,0,0,1-.918-.793,4.659,4.659,0,0,0-1.461-.918,5.268,5.268,0,0,0-1.961-.333,3.819,3.819,0,0,0-2.4.668,2.116,2.116,0,0,0-.855,1.752,1.951,1.951,0,0,0,.417,1.293,3.993,3.993,0,0,0,1.628.96,23.084,23.084,0,0,0,3.63.918,11.455,11.455,0,0,1,5.738,2.462,5.463,5.463,0,0,1,1.732,4.089,5.624,5.624,0,0,1-2.545,4.757,12.03,12.03,0,0,1-7.136,1.836A13.025,13.025,0,0,1,793.171,149.764Z" transform="translate(-718.856 -128.171)"/><path class="a" d="M918.418,149.764a8.19,8.19,0,0,1-3.15-2.211,3.77,3.77,0,0,1-1.023-2.191.836.836,0,0,1,.292-.668,1,1,0,0,1,.668-.25h3.3a.792.792,0,0,1,.626.292q.166.125.876.751a5.125,5.125,0,0,0,1.669,1.043,5.794,5.794,0,0,0,2.128.375,5.176,5.176,0,0,0,2.754-.668,2.185,2.185,0,0,0,.605-3.255,4.161,4.161,0,0,0-1.732-.98,30.3,30.3,0,0,0-3.714-.939,11.125,11.125,0,0,1-5.236-2.3,5.271,5.271,0,0,1-1.69-4.089,5.531,5.531,0,0,1,1-3.151,7.208,7.208,0,0,1,2.983-2.42,10.977,10.977,0,0,1,4.736-.939,11.985,11.985,0,0,1,4.84.9,8.617,8.617,0,0,1,3.109,2.128,3.571,3.571,0,0,1,1.064,2.19.926.926,0,0,1-.918.918h-3.088a1.175,1.175,0,0,1-.709-.292,10.5,10.5,0,0,1-.918-.793,4.659,4.659,0,0,0-1.461-.918,5.269,5.269,0,0,0-1.961-.333,3.82,3.82,0,0,0-2.4.668,2.116,2.116,0,0,0-.855,1.752,1.951,1.951,0,0,0,.417,1.293,3.99,3.99,0,0,0,1.627.96,23.082,23.082,0,0,0,3.63.918,11.455,11.455,0,0,1,5.738,2.462,5.463,5.463,0,0,1,1.732,4.089,5.624,5.624,0,0,1-2.546,4.757,12.03,12.03,0,0,1-7.135,1.836A13.026,13.026,0,0,1,918.418,149.764Z" transform="translate(-823.156 -128.171)"/><path class="b" d="M391.192,130.938a.838.838,0,0,0-.605-.271h-3.421a.973.973,0,0,0-.688.25,1.594,1.594,0,0,0-.4.543l-5.55,14.646-5.55-14.646a1.081,1.081,0,0,0-1.085-.793h-3.38a.927.927,0,0,0-.918.918l.084.375,7.8,19.361a1.914,1.914,0,0,0,.542.772,1.487,1.487,0,0,0,.96.271h3.087a1.486,1.486,0,0,0,.96-.271,1.922,1.922,0,0,0,.543-.772l7.845-19.361a1.29,1.29,0,0,0,.042-.375A.884.884,0,0,0,391.192,130.938Zm-10.661,20.176a2.128,2.128,0,1,1,2.127-2.128A2.128,2.128,0,0,1,380.531,151.114Z" transform="translate(-369.598 -130.25)"/></g><path class="a" d="M92.572,69.444A21.088,21.088,0,1,0,113.66,90.531,21.112,21.112,0,0,0,92.572,69.444ZM109.82,90.531A17.249,17.249,0,1,1,92.572,73.284,17.268,17.268,0,0,1,109.82,90.531Z" transform="translate(-71.483 -69.444)"/><g transform="translate(8.383 8.706)"><path class="a" d="M134.59,135.4l-8.132-5.22,8.133-5.219a1.47,1.47,0,0,0,.442-2.029l-.488-.761a1.46,1.46,0,0,0-.923-.641,1.476,1.476,0,0,0-1.105.2l-10.15,6.515a1.642,1.642,0,0,0-.759,1.388v1.1a1.643,1.643,0,0,0,.758,1.388l10.15,6.515a1.456,1.456,0,0,0,.791.234,1.527,1.527,0,0,0,.315-.034,1.46,1.46,0,0,0,.923-.641l.488-.761A1.471,1.471,0,0,0,134.59,135.4Z" transform="translate(-121.607 -121.498)"/><path class="b" d="M204.792,172.47l-10.15-6.515a1.466,1.466,0,0,0-2.029.441l-.488.761a1.471,1.471,0,0,0,.442,2.029l8.132,5.219-8.132,5.22a1.47,1.47,0,0,0-.442,2.028l.488.761a1.459,1.459,0,0,0,.923.641,1.526,1.526,0,0,0,.315.034,1.46,1.46,0,0,0,.791-.233l10.15-6.515a1.642,1.642,0,0,0,.758-1.388v-1.1A1.642,1.642,0,0,0,204.792,172.47Z" transform="translate(-180.138 -158.325)"/></g></g><g transform="translate(194.167 105.504)"><g transform="translate(6.947 0)"><path class="c" d="M846.587,285.06h1.761v6.174h3.815v1.435h-5.576Z" transform="translate(-846.587 -285.06)"/><path class="c" d="M890.168,291.038h-3.533l-.674,1.63h-1.8l3.391-7.609h1.739l3.4,7.609h-1.848Zm-.554-1.337-1.207-2.913L887.2,289.7Z" transform="translate(-877.874 -285.06)"/><path class="c" d="M946.9,290.593c0,1.315-1.044,2.076-3.044,2.076h-3.935V285.06h3.718c1.9,0,2.881.793,2.881,1.978a1.829,1.829,0,0,1-1.011,1.674A1.879,1.879,0,0,1,946.9,290.593Zm-5.228-4.207v1.794h1.75c.859,0,1.326-.3,1.326-.9s-.467-.891-1.326-.891Zm3.457,4.022c0-.641-.489-.946-1.4-.946h-2.054v1.88h2.054C944.642,291.343,945.132,291.06,945.132,290.408Z" transform="translate(-924.315 -285.06)"/><g transform="translate(22.731)"><path class="b" d="M1009.036,288.192l2.261-3.132h-1.9l-1.334,1.917Z" transform="translate(-1003.786 -285.06)"/><path class="c" d="M987.359,288.734l-.968-1.206-1.75-2.468h-2l2.674,3.739-2.816,3.87h2.022l1.8-2.641,1.837,2.641H990.2Zm-1.011,1.052a.732.732,0,1,1,.732-.732A.732.732,0,0,1,986.348,289.786Z" transform="translate(-982.5 -285.06)"/></g></g><g transform="translate(0 5.12)"><path class="d" d="M805.049,315.676h1.168a.631.631,0,0,1,.7.634.563.563,0,0,1-.433.571.615.615,0,0,1,.481.612.651.651,0,0,1-.72.672h-1.2Zm1.1,1.056a.365.365,0,1,0,0-.728h-.724v.728Zm.018,1.1a.374.374,0,0,0,.418-.392.38.38,0,0,0-.418-.384h-.742v.776Z" transform="translate(-805.049 -315.676)"/><path class="d" d="M818.049,317.124l-.974-1.448h.429l.731,1.112.724-1.112h.433l-.97,1.448v1.041h-.373Z" transform="translate(-815.064 -315.676)"/></g></g></g></svg>